<svg xmlns="http://www.w3.org/2000/svg" xmlns:svg="http://www.w3.org/2000/svg" id="svg1" width="210mm" height="297mm" version="1.1" viewBox="0 0 210 297" xml:space="preserve"><g id="layer1"><rect style="display:inline;fill:#fff;stroke-width:.231378" id="rect28" width="146.378" height="56.708" x="28.622" y="20" rx=".466" ry=".36"/><g id="g1"><g id="g23" transform="translate(-52.061547,-26.529493)"><g id="g7" transform="translate(0.54222712,1.1927441)"><path id="rect2" style="display:inline;fill:#4e91c9;fill-rule:evenodd;stroke:#000;stroke-width:.996041;stroke-linejoin:round" d="m 94.071016,48.067175 h 25.567644 c 4.46383,4.501978 5,5.088057 9.50886,9.501978 v 23.066638 c 0,2.364866 -1.90385,4.26871 -4.26871,4.26871 H 94.071016 c -2.364865,0 -4.26871,-1.903844 -4.26871,-4.26871 V 52.335886 c 0,-2.364866 1.903845,-4.268711 4.26871,-4.268711 z"/><path style="display:inline;fill:#4e91c9;fill-opacity:1;fill-rule:evenodd;stroke:#000;stroke-width:.937001;stroke-linecap:butt;stroke-linejoin:round;stroke-dasharray:none" id="path5" d="m 67.023493,47.020747 c 0.02365,5.911119 0.02903,7.255074 0.918711,8.276342 0.08582,0.09851 0.235689,0.249083 0.334185,0.335432 1.018035,0.892477 2.367707,0.889761 8.194538,0.878032" transform="translate(52.577117,1.0396596)"/><path style="display:inline;fill:#4e91c9;fill-opacity:1;fill-rule:evenodd;stroke:#000;stroke-width:.937001;stroke-linecap:butt;stroke-linejoin:round;stroke-dasharray:none" id="path7" d="m 119.60061,48.060407 9.54691,9.508745"/></g><g id="g3"><rect style="fill:#000;stroke-width:.264583" id="rect1-6" width="18.478" height="1.154" x="94.295" y="58.021" ry=".577"/><rect style="display:inline;fill:#000;stroke-width:.148523" id="rect1-2-6" width="10.325" height=".847" x="114.551" y="-13.986" rx="0" ry=".423" transform="matrix(0.7839428,0.64378287,-0.69374652,0.70002569,7.3469577,-0.12119362)"/><rect style="display:inline;fill:#000;stroke-width:.148523" id="rect1-2-6-6" width="10.325" height=".847" x="114.551" y="-13.986" rx="0" ry=".423" transform="matrix(0.78394282,0.64378287,-0.69374652,0.70002569,-1.560427,-0.1211937)"/><rect style="fill:#000;stroke-width:.154051" id="rect1-6-7" width="6.264" height="1.154" x="116" y="75.846" ry=".577"/><rect style="fill:#000;stroke-width:.264583" id="rect1-6-2" width="18.478" height="1.154" x="94.295" y="54.564" ry=".577"/><rect style="display:inline;fill:#000;stroke-width:.148523" id="rect1-2-6-6-1" width="10.325" height=".847" x="114.551" y="-13.986" rx="0" ry=".423" transform="matrix(0.78778822,-0.63907154,0.54684594,0.81992666,14.698824,161.25165)"/><rect style="display:inline;fill:#000;stroke-width:.148523" id="rect1-2-6-6-1-6" width="10.325" height=".847" x="114.551" y="-13.986" rx="0" ry=".423" transform="matrix(0.78778822,-0.63907154,0.54684594,0.81992666,23.604563,161.2503)"/></g></g><g id="g26" transform="translate(-52.061547,-26.529494)" style="display:inline;fill:#000"><rect style="display:inline;fill:#ffd43b;fill-opacity:1;fill-rule:evenodd;stroke:#000;stroke-width:.908283;stroke-linecap:butt;stroke-linejoin:round;stroke-dasharray:none" id="rect1" width="52.312" height="18.893" x="31.715" y="55.862" ry="3.772" transform="translate(52.061547,26.529494)"/><text xml:space="preserve" style="font-style:normal;font-variant:normal;font-weight:400;font-stretch:normal;font-size:19.05px;line-height:0;font-family:'Noto Sans';-inkscape-font-specification:'Noto Sans';text-align:center;letter-spacing:1.05833px;word-spacing:0;text-anchor:middle;fill:#000;fill-opacity:1;fill-rule:evenodd;stroke:none;stroke-width:.937001;stroke-linecap:butt;stroke-linejoin:round;stroke-dasharray:none" id="text8" x="56.948" y="72.109" transform="translate(52.061547,26.529494)"><tspan id="tspan8" style="font-style:normal;font-variant:normal;font-weight:400;font-stretch:normal;font-size:19.05px;font-family:'Noto Sans';-inkscape-font-specification:'Noto Sans';stroke:none;stroke-width:.937" x="57.477" y="72.109">PY</tspan></text></g></g><g id="g29" transform="translate(-57.315585,-20.715509)"><text xml:space="preserve" style="font-style:normal;font-variant:normal;font-weight:700;font-stretch:normal;font-size:12.7px;font-family:'Times New Roman';-inkscape-font-specification:'Times New Roman, Bold';font-variant-ligatures:normal;font-variant-caps:normal;font-variant-numeric:normal;font-variant-east-asian:normal;letter-spacing:.132292px;writing-mode:lr-tb;white-space:pre;inline-size:73.0621;display:inline;fill:#fff;stroke-width:.264583" id="text28-1" x="159.158" y="52.11" transform="translate(-11.729306,26.786394)"><tspan id="tspan11" x="159.158" y="52.11"><tspan style="font-weight:400;font-family:'Noto Sans';-inkscape-font-specification:'Noto Sans';fill:#000" id="tspan10">2Captcha</tspan></tspan></text><rect style="fill:#000;stroke-width:.277591" id="rect29" width="65" height="1" x="143" y="67" rx=".716" ry=".492"/><text xml:space="preserve" style="font-style:normal;font-variant:normal;font-weight:700;font-stretch:normal;font-size:11.2889px;font-family:'Times New Roman';-inkscape-font-specification:'Times New Roman, Bold';font-variant-ligatures:normal;font-variant-caps:normal;font-variant-numeric:normal;font-variant-east-asian:normal;letter-spacing:.132292px;writing-mode:lr-tb;white-space:pre;inline-size:74.2366;display:none;fill:#fff;stroke-width:.264583" id="text28" x="159.158" y="52.11" transform="translate(-16.058408,11.48999)"><tspan id="tspan13" x="159.158" y="52.11"><tspan style="font-weight:400;font-family:'Noto Sans';-inkscape-font-specification:'Noto Sans';fill:#000" id="tspan12">AntiCaptcha</tspan></tspan></text><text xml:space="preserve" style="font-style:normal;font-variant:normal;font-weight:700;font-stretch:normal;font-size:12.7px;font-family:'Times New Roman';-inkscape-font-specification:'Times New Roman, Bold';font-variant-ligatures:normal;font-variant-caps:normal;font-variant-numeric:normal;font-variant-east-asian:normal;letter-spacing:.132292px;writing-mode:lr-tb;white-space:pre;inline-size:74.2366;display:inline;fill:#fff;stroke-width:.264583" id="text14" x="159.158" y="52.11" transform="translate(-16.470774,10.597201)"><tspan id="tspan15" x="159.158" y="52.11"><tspan style="font-weight:400;font-family:'Noto Sans';-inkscape-font-specification:'Noto Sans';fill:#000" id="tspan14">RuCaptcha</tspan></tspan></text><text xml:space="preserve" style="font-style:normal;font-variant:normal;font-weight:700;font-stretch:normal;font-size:12.7px;font-family:'Times New Roman';-inkscape-font-specification:'Times New Roman, Bold';font-variant-ligatures:normal;font-variant-caps:normal;font-variant-numeric:normal;font-variant-east-asian:normal;letter-spacing:.132292px;writing-mode:lr-tb;white-space:pre;inline-size:74.2366;display:none;fill:#fff;stroke-width:.264583" id="text15" x="159.158" y="52.11" transform="translate(-13.911713,10.597201)"><tspan id="tspan17" x="159.158" y="52.11"><tspan style="font-weight:400;font-family:'Noto Sans';-inkscape-font-specification:'Noto Sans';fill:#000" id="tspan16">Capsolver</tspan></tspan></text></g><g id="g14" transform="matrix(0.90223972,0,0,0.90223972,-15.802051,-1.4786689)"><g id="g11" transform="rotate(-154.60245,196.9512,57.707142)"><g id="g13"><path style="fill:none;fill-opacity:1;fill-rule:evenodd;stroke:#000;stroke-width:.886682;stroke-linecap:round;stroke-linejoin:round;stroke-dasharray:none" id="path13" d="m 220,54.999998 v 5" transform="translate(-19.999883,-1.2433087e-4)"/><path style="fill:none;fill-opacity:1;fill-rule:evenodd;stroke:#000;stroke-width:.886682;stroke-linecap:round;stroke-linejoin:round;stroke-dasharray:none" id="path12" d="m 215,54.999998 v 5" transform="translate(-19.999883,-1.2433087e-4)"/></g><rect style="fill:#5192c8;fill-opacity:1;fill-rule:evenodd;stroke:#000;stroke-width:.600247;stroke-linecap:round;stroke-linejoin:round;stroke-dasharray:none" id="rect10" width="15" height="2.698" x="190" y="52.302"/><path style="fill:#000;fill-opacity:1;fill-rule:evenodd;stroke:#000;stroke-width:.7;stroke-linecap:round;stroke-linejoin:round;stroke-dasharray:none" id="path10" d="M 197.5,42.593973 V 37"/><path id="path11" style="fill:none;fill-rule:evenodd;stroke:#000;stroke-width:.599619;stroke-linejoin:round;stroke-dasharray:none" d="m 190,47.999999 c 2,-7 13,-7 15,0 v 6.999999 h -15 z"/></g><g id="g9" transform="rotate(25.398369,203.13144,56.54142)"><rect style="fill:#ffd43b;fill-opacity:1;fill-rule:evenodd;stroke:#000;stroke-width:.600247;stroke-linecap:round;stroke-linejoin:round;stroke-dasharray:none" id="rect9" width="15" height="2.698" x="190" y="52.302"/><path style="fill:#000;fill-opacity:1;fill-rule:evenodd;stroke:#000;stroke-width:.7;stroke-linecap:round;stroke-linejoin:round;stroke-dasharray:none" id="path8" d="M 197.5,42.593973 V 37"/><path id="rect8" style="fill:none;fill-rule:evenodd;stroke:#000;stroke-width:.6;stroke-linejoin:round;stroke-dasharray:none" d="m 190,47.999999 c 2,-7 13,-7 15,0 v 6.999999 h -15 z"/></g></g></g></svg>